<svg width="780" height="157" viewBox="0 0 780 157" fill="none" xmlns="http://www.w3.org/2000/svg">
<mask id="mask0" mask-type="alpha" maskUnits="userSpaceOnUse" x="2" y="11" width="776" height="134">
<path d="M2.01562 11.7583L777.74 11.7583L777.74 144.739L2.01563 144.739L2.01562 11.7583Z" fill="#4D4D4D"/>
</mask>
<g mask="url(#mask0)">
<path d="M-74 129.5C-74 149.658 -57.6584 166 -37.5 166H858V-7.5C858 -25.4493 843.449 -40 825.5 -40H-74V129.5Z" fill="#4D4D4B"/>
<g clip-path="url(#clip0)">
<path d="M11.256 71.3077L76.6589 141.245L45.1647 71.3077H11.256ZM96.5002 152.498L133.138 71.3077H59.862L96.5002 152.498ZM45.4797 57.8462L66.8957 17.4615H39.3908L9.15641 57.8462H45.4797ZM116.341 141.245L181.744 71.3077H147.836L116.341 141.245ZM60.7018 57.8462H132.299L110.882 17.4615H82.1178L60.7018 57.8462ZM147.521 57.8462H183.844L153.61 17.4615H126.105L147.521 57.8462ZM162.323 6.73437L202.635 60.5805C203.615 61.8425 204.07 63.2974 204 64.945C203.93 66.5926 203.335 68.0124 202.215 69.2043L101.434 176.897C100.174 178.299 98.5298 179 96.5002 179C94.4705 179 92.8258 178.299 91.5661 176.897L-9.21517 69.2043C-10.335 68.0124 -10.9299 66.5926 -10.9998 64.945C-11.0698 63.2974 -10.6149 61.8425 -9.63509 60.5805L30.6774 6.73437C31.9372 4.91146 33.7218 4 36.0314 4H156.969C159.278 4 161.063 4.91146 162.323 6.73437Z" fill="#B1B1B1"/>
<path d="M-4.28125 63.478L34.6875 10.7307H154.841L190.562 70.0714L93.1406 172.269L-4.28125 63.478Z" fill="#B1B1B1" stroke="#B1B1B1"/>
<g opacity="0.4">
<path d="M11.256 -43.1154L76.6589 26.8215L45.1647 -43.1154H11.256ZM96.5002 38.0745L133.138 -43.1154H59.862L96.5002 38.0745ZM45.4797 -56.5769L66.8957 -96.9616H39.3908L9.15641 -56.5769H45.4797ZM116.341 26.8215L181.744 -43.1154H147.836L116.341 26.8215ZM60.7018 -56.5769H132.299L110.882 -96.9616H82.1178L60.7018 -56.5769ZM147.521 -56.5769H183.844L153.61 -96.9616H126.105L147.521 -56.5769ZM162.323 -107.689L202.635 -53.8426C203.615 -52.5805 204.07 -51.1257 204 -49.4781C203.93 -47.8304 203.335 -46.4107 202.215 -45.2188L101.434 62.4735C100.174 63.8758 98.5298 64.5769 96.5002 64.5769C94.4705 64.5769 92.8258 63.8758 91.5661 62.4735L-9.21517 -45.2188C-10.335 -46.4107 -10.9299 -47.8304 -10.9998 -49.4781C-11.0698 -51.1257 -10.6149 -52.5805 -9.63509 -53.8426L30.6774 -107.689C31.9372 -109.512 33.7218 -110.423 36.0314 -110.423H156.969C159.278 -110.423 161.063 -109.512 162.323 -107.689Z" fill="white"/>
<path d="M-4.28125 -50.9451L34.6875 -103.692H154.841L190.562 -44.3517L93.1406 57.8461L-4.28125 -50.9451Z" fill="white" stroke="white"/>
</g>
</g>
</g>
<g clip-path="url(#clip1)">
<path d="M621.313 75L631.047 85.3906L626.359 75H621.313ZM634 87.0625L639.453 75H628.547L634 87.0625ZM626.406 73L629.594 67H625.5L621 73H626.406ZM636.953 85.3906L646.688 75H641.641L636.953 85.3906ZM628.672 73H639.328L636.141 67H631.859L628.672 73ZM641.594 73H647L642.5 67H638.406L641.594 73ZM643.797 65.4062L649.797 73.4062C649.943 73.5938 650.01 73.8099 650 74.0547C649.99 74.2995 649.901 74.5104 649.734 74.6875L634.734 90.6875C634.547 90.8958 634.302 91 634 91C633.698 91 633.453 90.8958 633.266 90.6875L618.266 74.6875C618.099 74.5104 618.01 74.2995 618 74.0547C617.99 73.8099 618.057 73.5938 618.203 73.4062L624.203 65.4062C624.391 65.1354 624.656 65 625 65H643C643.344 65 643.609 65.1354 643.797 65.4062Z" fill="#BFBFBF"/>
<path d="M619 73.8367L624.8 66H642.683L648 74.8163L633.5 90L619 73.8367Z" fill="#BFBFBF" stroke="#BFBFBF"/>
<g opacity="0.4">
<path d="M621.313 58L631.047 68.3906L626.359 58H621.313ZM634 70.0625L639.453 58H628.547L634 70.0625ZM626.406 56L629.594 50H625.5L621 56H626.406ZM636.953 68.3906L646.688 58H641.641L636.953 68.3906ZM628.672 56H639.328L636.141 50H631.859L628.672 56ZM641.594 56H647L642.5 50H638.406L641.594 56ZM643.797 48.4062L649.797 56.4062C649.943 56.5938 650.01 56.8099 650 57.0547C649.99 57.2995 649.901 57.5104 649.734 57.6875L634.734 73.6875C634.547 73.8958 634.302 74 634 74C633.698 74 633.453 73.8958 633.266 73.6875L618.266 57.6875C618.099 57.5104 618.01 57.2995 618 57.0547C617.99 56.8099 618.057 56.5938 618.203 56.4062L624.203 48.4062C624.391 48.1354 624.656 48 625 48H643C643.344 48 643.609 48.1354 643.797 48.4062Z" fill="white"/>
<path d="M619 56.8367L624.8 49H642.683L648 57.8163L633.5 73L619 56.8367Z" fill="white" stroke="white"/>
</g>
</g>
<path d="M335.13 65.53L324.618 91H322.98L312.468 65.53H313.926C314.094 65.53 314.232 65.578 314.34 65.674C314.448 65.758 314.532 65.872 314.592 66.016L323.268 87.148C323.364 87.412 323.46 87.694 323.556 87.994C323.652 88.294 323.742 88.6 323.826 88.912C323.898 88.6 323.976 88.294 324.06 87.994C324.144 87.694 324.24 87.412 324.348 87.148L333.006 66.016C333.054 65.884 333.138 65.77 333.258 65.674C333.378 65.578 333.522 65.53 333.69 65.53H335.13ZM341.206 91H339.352V65.53H341.206V91ZM355.003 78.112C356.131 78.112 357.139 77.98 358.027 77.716C358.927 77.44 359.683 77.05 360.295 76.546C360.919 76.042 361.393 75.436 361.717 74.728C362.041 74.02 362.203 73.222 362.203 72.334C362.203 70.522 361.609 69.178 360.421 68.302C359.245 67.426 357.523 66.988 355.255 66.988H350.593V78.112H355.003ZM366.307 91H364.723C364.519 91 364.345 90.97 364.201 90.91C364.069 90.838 363.943 90.712 363.823 90.532L355.651 80.2C355.555 80.068 355.453 79.954 355.345 79.858C355.249 79.762 355.135 79.69 355.003 79.642C354.883 79.582 354.733 79.54 354.553 79.516C354.385 79.492 354.175 79.48 353.923 79.48H350.593V91H348.739V65.53H355.255C358.183 65.53 360.373 66.1 361.825 67.24C363.289 68.368 364.021 70.03 364.021 72.226C364.021 73.198 363.853 74.086 363.517 74.89C363.181 75.694 362.695 76.402 362.059 77.014C361.435 77.614 360.673 78.106 359.773 78.49C358.885 78.874 357.883 79.132 356.767 79.264C357.055 79.444 357.313 79.684 357.541 79.984L366.307 91ZM385.906 89.47L385.87 91H370.606V65.53H385.87V67.06H372.46V77.356H383.62V78.85H372.46V89.47H385.906Z" fill="#F5F5F5"/>
<path d="M435.01 77.986C435.01 79.894 434.692 81.646 434.056 83.242C433.42 84.838 432.526 86.212 431.374 87.364C430.222 88.516 428.836 89.41 427.216 90.046C425.596 90.682 423.796 91 421.816 91H411.898V64.972H421.816C423.796 64.972 425.596 65.296 427.216 65.944C428.836 66.58 430.222 67.474 431.374 68.626C432.526 69.766 433.42 71.134 434.056 72.73C434.692 74.326 435.01 76.078 435.01 77.986ZM430.042 77.986C430.042 76.558 429.85 75.28 429.466 74.152C429.094 73.012 428.548 72.052 427.828 71.272C427.12 70.48 426.256 69.874 425.236 69.454C424.228 69.034 423.088 68.824 421.816 68.824H416.758V87.148H421.816C423.088 87.148 424.228 86.938 425.236 86.518C426.256 86.098 427.12 85.498 427.828 84.718C428.548 83.926 429.094 82.966 429.466 81.838C429.85 80.698 430.042 79.414 430.042 77.986ZM444.145 91H439.285V64.972H444.145V91ZM463.724 81.172L460.556 72.514C460.4 72.13 460.238 71.674 460.07 71.146C459.902 70.618 459.734 70.048 459.566 69.436C459.41 70.048 459.248 70.624 459.08 71.164C458.912 71.692 458.75 72.154 458.594 72.55L455.444 81.172H463.724ZM472.274 91H468.53C468.11 91 467.768 90.898 467.504 90.694C467.24 90.478 467.042 90.214 466.91 89.902L464.966 84.592H454.184L452.24 89.902C452.144 90.178 451.958 90.43 451.682 90.658C451.406 90.886 451.064 91 450.656 91H446.876L457.118 64.972H462.05L472.274 91ZM503.192 64.972V91H498.926V74.188C498.926 73.516 498.962 72.79 499.034 72.01L491.168 86.788C490.796 87.496 490.226 87.85 489.458 87.85H488.774C488.006 87.85 487.436 87.496 487.064 86.788L479.108 71.956C479.144 72.352 479.174 72.742 479.198 73.126C479.222 73.51 479.234 73.864 479.234 74.188V91H474.968V64.972H478.622C478.838 64.972 479.024 64.978 479.18 64.99C479.336 65.002 479.474 65.032 479.594 65.08C479.726 65.128 479.84 65.206 479.936 65.314C480.044 65.422 480.146 65.566 480.242 65.746L488.036 80.2C488.24 80.584 488.426 80.98 488.594 81.388C488.774 81.796 488.948 82.216 489.116 82.648C489.284 82.204 489.458 81.778 489.638 81.37C489.818 80.95 490.01 80.548 490.214 80.164L497.9 65.746C497.996 65.566 498.098 65.422 498.206 65.314C498.314 65.206 498.428 65.128 498.548 65.08C498.68 65.032 498.824 65.002 498.98 64.99C499.136 64.978 499.322 64.972 499.538 64.972H503.192ZM522.752 81.172L519.584 72.514C519.428 72.13 519.266 71.674 519.098 71.146C518.93 70.618 518.762 70.048 518.594 69.436C518.438 70.048 518.276 70.624 518.108 71.164C517.94 71.692 517.778 72.154 517.622 72.55L514.472 81.172H522.752ZM531.302 91H527.558C527.138 91 526.796 90.898 526.532 90.694C526.268 90.478 526.07 90.214 525.938 89.902L523.994 84.592H513.212L511.268 89.902C511.172 90.178 510.986 90.43 510.71 90.658C510.434 90.886 510.092 91 509.684 91H505.904L516.146 64.972H521.078L531.302 91ZM555.938 64.972V91H553.454C553.07 91 552.746 90.94 552.482 90.82C552.23 90.688 551.984 90.472 551.744 90.172L538.154 72.82C538.226 73.612 538.262 74.344 538.262 75.016V91H533.996V64.972H536.534C536.738 64.972 536.912 64.984 537.056 65.008C537.212 65.02 537.344 65.056 537.452 65.116C537.572 65.164 537.686 65.242 537.794 65.35C537.902 65.446 538.022 65.578 538.154 65.746L551.798 83.17C551.762 82.75 551.732 82.336 551.708 81.928C551.684 81.52 551.672 81.142 551.672 80.794V64.972H555.938ZM579.914 68.95H572.066V91H567.224V68.95H559.376V64.972H579.914V68.95ZM588.18 68.824V76.042H597.288V79.768H588.18V87.13H599.736V91H583.32V64.972H599.736V68.824H588.18Z" fill="#F5F5F5"/>
<defs>
<clipPath id="clip0">
<rect x="-11" y="4" width="215" height="175" fill="white"/>
</clipPath>
<clipPath id="clip1">
<rect x="618" y="65" width="32" height="26" fill="white"/>
</clipPath>
</defs>
</svg>
