<svg width="1224" height="357" viewBox="0 0 1224 357" fill="none" xmlns="http://www.w3.org/2000/svg">
<mask id="mask0" mask-type="alpha" maskUnits="userSpaceOnUse" x="0" y="0" width="357" height="357">
<circle cx="178.5" cy="178.5" r="178.5" transform="rotate(-90 178.5 178.5)" fill="#C4C4C4"/>
</mask>
<g mask="url(#mask0)">
<rect width="267.355" height="312.796" rx="25" transform="matrix(-0.562147 0.827037 -0.642155 -0.766575 220.256 302.488)" fill="url(#paint0_linear)"/>
<rect width="267.355" height="312.796" rx="25" transform="matrix(-0.562147 0.827037 -0.642155 -0.766575 374.956 302.488)" fill="url(#paint1_linear)"/>
<rect width="267.355" height="312.796" rx="25" transform="matrix(-0.562147 0.827037 -0.642155 -0.766575 374.956 94.2371)" fill="url(#paint2_linear)"/>
<rect width="267.355" height="312.796" rx="25" transform="matrix(-0.562147 0.827037 -0.642155 -0.766575 255.956 94.2371)" fill="url(#paint3_linear)"/>
<rect width="207.752" height="416.929" rx="22.4668" transform="matrix(0.94295 0.332934 -0.577713 0.81624 353.916 -88.1814)" fill="url(#paint4_linear)"/>
<rect width="267.355" height="312.796" rx="25" transform="matrix(-0.562147 0.827037 -0.642155 -0.766575 505.856 356.038)" fill="url(#paint5_linear)"/>
<rect width="267.355" height="312.796" rx="25" transform="matrix(0.46146 0.887161 -0.97944 0.201736 104.365 44.7108)" fill="url(#paint6_linear)"/>
</g>
<circle cx="177.507" cy="179.491" r="92.5218" transform="rotate(-60 177.507 179.491)" fill="white" stroke="url(#paint7_linear)" stroke-width="40"/>
<path d="M942.282 319.966C942.091 320.209 941.901 320.399 941.71 320.538C941.537 320.677 941.277 320.746 940.93 320.746C940.601 320.746 940.28 320.651 939.968 320.46C939.656 320.252 939.283 320.027 938.85 319.784C938.417 319.524 937.897 319.299 937.29 319.108C936.701 318.9 935.964 318.796 935.08 318.796C933.953 318.796 932.965 319.004 932.116 319.42C931.267 319.819 930.556 320.399 929.984 321.162C929.429 321.925 929.013 322.852 928.736 323.944C928.459 325.019 928.32 326.241 928.32 327.61C928.32 329.031 928.467 330.297 928.762 331.406C929.074 332.515 929.516 333.451 930.088 334.214C930.66 334.959 931.353 335.531 932.168 335.93C932.983 336.311 933.901 336.502 934.924 336.502C935.947 336.502 936.77 336.381 937.394 336.138C938.035 335.878 938.573 335.601 939.006 335.306C939.439 334.994 939.812 334.717 940.124 334.474C940.453 334.214 940.817 334.084 941.216 334.084C941.736 334.084 942.126 334.283 942.386 334.682L944.232 337.022C943.521 337.854 942.75 338.556 941.918 339.128C941.086 339.683 940.219 340.133 939.318 340.48C938.434 340.809 937.515 341.043 936.562 341.182C935.626 341.321 934.69 341.39 933.754 341.39C932.107 341.39 930.556 341.087 929.1 340.48C927.644 339.856 926.37 338.955 925.278 337.776C924.186 336.597 923.319 335.159 922.678 333.46C922.054 331.744 921.742 329.794 921.742 327.61C921.742 325.651 922.019 323.84 922.574 322.176C923.146 320.495 923.978 319.047 925.07 317.834C926.162 316.603 927.514 315.641 929.126 314.948C930.738 314.255 932.593 313.908 934.69 313.908C936.683 313.908 938.425 314.229 939.916 314.87C941.424 315.511 942.776 316.43 943.972 317.626L942.282 319.966ZM959.605 313.908C961.581 313.908 963.375 314.229 964.987 314.87C966.616 315.511 968.003 316.421 969.147 317.6C970.308 318.779 971.201 320.217 971.825 321.916C972.449 323.615 972.761 325.513 972.761 327.61C972.761 329.725 972.449 331.631 971.825 333.33C971.201 335.029 970.308 336.476 969.147 337.672C968.003 338.868 966.616 339.787 964.987 340.428C963.375 341.069 961.581 341.39 959.605 341.39C957.612 341.39 955.8 341.069 954.171 340.428C952.542 339.787 951.146 338.868 949.985 337.672C948.841 336.476 947.948 335.029 947.307 333.33C946.683 331.631 946.371 329.725 946.371 327.61C946.371 325.513 946.683 323.615 947.307 321.916C947.948 320.217 948.841 318.779 949.985 317.6C951.146 316.421 952.542 315.511 954.171 314.87C955.8 314.229 957.612 313.908 959.605 313.908ZM959.605 336.45C961.824 336.45 963.462 335.705 964.519 334.214C965.594 332.723 966.131 330.539 966.131 327.662C966.131 324.785 965.594 322.592 964.519 321.084C963.462 319.576 961.824 318.822 959.605 318.822C957.352 318.822 955.679 319.585 954.587 321.11C953.512 322.618 952.975 324.802 952.975 327.662C952.975 330.522 953.512 332.706 954.587 334.214C955.679 335.705 957.352 336.45 959.605 336.45ZM977.66 341V314.324H981.586C982.418 314.324 982.964 314.714 983.224 315.494L983.64 317.47C984.108 316.95 984.594 316.473 985.096 316.04C985.616 315.607 986.162 315.234 986.734 314.922C987.324 314.61 987.948 314.367 988.606 314.194C989.282 314.003 990.019 313.908 990.816 313.908C992.498 313.908 993.876 314.367 994.95 315.286C996.042 316.187 996.857 317.392 997.394 318.9C997.81 318.016 998.33 317.262 998.954 316.638C999.578 315.997 1000.26 315.477 1001.01 315.078C1001.75 314.679 1002.54 314.385 1003.37 314.194C1004.22 314.003 1005.07 313.908 1005.92 313.908C1007.4 313.908 1008.7 314.133 1009.85 314.584C1010.99 315.035 1011.95 315.693 1012.73 316.56C1013.51 317.427 1014.1 318.484 1014.5 319.732C1014.92 320.98 1015.13 322.41 1015.13 324.022V341H1008.7V324.022C1008.7 322.323 1008.33 321.049 1007.59 320.2C1006.84 319.333 1005.75 318.9 1004.31 318.9C1003.65 318.9 1003.04 319.013 1002.46 319.238C1001.91 319.463 1001.42 319.793 1000.98 320.226C1000.57 320.642 1000.24 321.171 999.994 321.812C999.752 322.453 999.63 323.19 999.63 324.022V341H993.182V324.022C993.182 322.237 992.818 320.937 992.09 320.122C991.38 319.307 990.331 318.9 988.944 318.9C988.008 318.9 987.133 319.134 986.318 319.602C985.521 320.053 984.776 320.677 984.082 321.474V341H977.66ZM1027.65 334.084C1028.38 334.968 1029.17 335.592 1030.02 335.956C1030.89 336.32 1031.8 336.502 1032.75 336.502C1033.74 336.502 1034.62 336.329 1035.4 335.982C1036.2 335.618 1036.87 335.063 1037.43 334.318C1037.98 333.555 1038.41 332.593 1038.7 331.432C1039 330.253 1039.14 328.849 1039.14 327.22C1039.14 324.291 1038.66 322.176 1037.69 320.876C1036.72 319.559 1035.32 318.9 1033.5 318.9C1032.27 318.9 1031.2 319.186 1030.28 319.758C1029.36 320.313 1028.48 321.101 1027.65 322.124V334.084ZM1027.65 317.6C1028.73 316.473 1029.91 315.581 1031.21 314.922C1032.53 314.246 1034.03 313.908 1035.71 313.908C1037.26 313.908 1038.64 314.211 1039.87 314.818C1041.12 315.425 1042.18 316.3 1043.04 317.444C1043.93 318.571 1044.6 319.94 1045.07 321.552C1045.54 323.164 1045.77 324.975 1045.77 326.986C1045.77 329.153 1045.51 331.12 1044.97 332.888C1044.43 334.656 1043.66 336.173 1042.65 337.438C1041.67 338.686 1040.47 339.657 1039.07 340.35C1037.66 341.043 1036.1 341.39 1034.39 341.39C1033.55 341.39 1032.8 341.303 1032.12 341.13C1031.45 340.974 1030.82 340.749 1030.25 340.454C1029.68 340.159 1029.15 339.804 1028.67 339.388C1028.2 338.955 1027.75 338.478 1027.31 337.958L1027.03 339.752C1026.92 340.203 1026.74 340.523 1026.48 340.714C1026.24 340.905 1025.9 341 1025.47 341H1021.23V302.364H1027.65V317.6ZM1073.72 314.324V341H1069.79C1068.94 341 1068.41 340.61 1068.18 339.83L1067.74 337.698C1066.65 338.807 1065.44 339.709 1064.12 340.402C1062.81 341.078 1061.26 341.416 1059.47 341.416C1058.01 341.416 1056.72 341.173 1055.6 340.688C1054.49 340.185 1053.55 339.483 1052.79 338.582C1052.03 337.681 1051.45 336.615 1051.05 335.384C1050.67 334.136 1050.47 332.767 1050.47 331.276V314.324H1056.9V331.276C1056.9 332.905 1057.27 334.171 1058.01 335.072C1058.78 335.956 1059.91 336.398 1061.42 336.398C1062.53 336.398 1063.57 336.155 1064.54 335.67C1065.51 335.167 1066.43 334.483 1067.3 333.616V314.324H1073.72ZM1096.36 319.524C1096.19 319.801 1096.01 320.001 1095.82 320.122C1095.63 320.226 1095.38 320.278 1095.09 320.278C1094.78 320.278 1094.44 320.191 1094.07 320.018C1093.73 319.845 1093.32 319.654 1092.85 319.446C1092.38 319.221 1091.85 319.021 1091.24 318.848C1090.65 318.675 1089.95 318.588 1089.13 318.588C1087.87 318.588 1086.87 318.857 1086.14 319.394C1085.43 319.931 1085.08 320.633 1085.08 321.5C1085.08 322.072 1085.26 322.557 1085.62 322.956C1086.01 323.337 1086.5 323.675 1087.11 323.97C1087.73 324.265 1088.43 324.533 1089.21 324.776C1089.99 325.001 1090.78 325.253 1091.58 325.53C1092.39 325.807 1093.19 326.128 1093.97 326.492C1094.75 326.839 1095.44 327.289 1096.05 327.844C1096.67 328.381 1097.17 329.031 1097.53 329.794C1097.91 330.557 1098.1 331.475 1098.1 332.55C1098.1 333.833 1097.87 335.02 1097.4 336.112C1096.95 337.187 1096.28 338.123 1095.37 338.92C1094.47 339.7 1093.35 340.315 1092.02 340.766C1090.7 341.199 1089.18 341.416 1087.44 341.416C1086.53 341.416 1085.62 341.329 1084.74 341.156C1083.87 341 1083.03 340.775 1082.22 340.48C1081.42 340.185 1080.68 339.839 1079.98 339.44C1079.31 339.041 1078.71 338.608 1078.19 338.14L1079.67 335.696C1079.86 335.401 1080.09 335.176 1080.35 335.02C1080.61 334.864 1080.94 334.786 1081.33 334.786C1081.73 334.786 1082.11 334.899 1082.45 335.124C1082.82 335.349 1083.23 335.592 1083.7 335.852C1084.17 336.112 1084.71 336.355 1085.34 336.58C1085.98 336.805 1086.79 336.918 1087.76 336.918C1088.52 336.918 1089.17 336.831 1089.71 336.658C1090.26 336.467 1090.71 336.225 1091.06 335.93C1091.42 335.635 1091.68 335.297 1091.84 334.916C1092.01 334.517 1092.1 334.11 1092.1 333.694C1092.1 333.07 1091.91 332.559 1091.53 332.16C1091.16 331.761 1090.67 331.415 1090.04 331.12C1089.44 330.825 1088.74 330.565 1087.94 330.34C1087.16 330.097 1086.35 329.837 1085.52 329.56C1084.71 329.283 1083.9 328.962 1083.1 328.598C1082.32 328.217 1081.62 327.74 1081 327.168C1080.39 326.596 1079.9 325.894 1079.51 325.062C1079.15 324.23 1078.97 323.225 1078.97 322.046C1078.97 320.954 1079.18 319.914 1079.62 318.926C1080.05 317.938 1080.68 317.08 1081.52 316.352C1082.37 315.607 1083.41 315.017 1084.66 314.584C1085.93 314.133 1087.38 313.908 1089.03 313.908C1090.87 313.908 1092.54 314.211 1094.05 314.818C1095.56 315.425 1096.81 316.222 1097.82 317.21L1096.36 319.524ZM1129.85 341H1123.43V319.134H1111.05V333.59C1111.05 334.422 1111.25 335.072 1111.65 335.54C1112.06 336.008 1112.63 336.242 1113.34 336.242C1113.74 336.242 1114.07 336.199 1114.33 336.112C1114.6 336.008 1114.84 335.904 1115.03 335.8C1115.24 335.696 1115.42 335.601 1115.57 335.514C1115.73 335.41 1115.89 335.358 1116.04 335.358C1116.23 335.358 1116.39 335.41 1116.51 335.514C1116.63 335.601 1116.76 335.739 1116.9 335.93L1118.82 339.05C1117.89 339.83 1116.81 340.419 1115.6 340.818C1114.39 341.217 1113.13 341.416 1111.83 341.416C1109.51 341.416 1107.72 340.766 1106.47 339.466C1105.24 338.149 1104.63 336.337 1104.63 334.032V319.134H1101.9C1101.55 319.134 1101.26 319.021 1101.01 318.796C1100.77 318.571 1100.65 318.233 1100.65 317.782V315.234L1104.94 314.506L1106.29 307.252C1106.38 306.905 1106.54 306.637 1106.79 306.446C1107.03 306.255 1107.34 306.16 1107.72 306.16H1111.05V314.558H1129.85V341ZM1130.97 306.446C1130.97 307.001 1130.85 307.529 1130.63 308.032C1130.4 308.517 1130.1 308.942 1129.72 309.306C1129.35 309.67 1128.91 309.965 1128.39 310.19C1127.89 310.398 1127.35 310.502 1126.78 310.502C1126.22 310.502 1125.7 310.398 1125.22 310.19C1124.73 309.965 1124.31 309.67 1123.95 309.306C1123.58 308.942 1123.29 308.517 1123.06 308.032C1122.85 307.529 1122.75 307.001 1122.75 306.446C1122.75 305.874 1122.85 305.345 1123.06 304.86C1123.29 304.357 1123.58 303.924 1123.95 303.56C1124.31 303.179 1124.73 302.884 1125.22 302.676C1125.7 302.451 1126.22 302.338 1126.78 302.338C1127.35 302.338 1127.89 302.451 1128.39 302.676C1128.91 302.884 1129.35 303.179 1129.72 303.56C1130.1 303.924 1130.4 304.357 1130.63 304.86C1130.85 305.345 1130.97 305.874 1130.97 306.446ZM1160.45 314.324L1149.87 341H1144.05L1133.46 314.324H1138.77C1139.25 314.324 1139.65 314.437 1139.96 314.662C1140.29 314.887 1140.51 315.173 1140.61 315.52L1145.76 329.768C1146.04 330.6 1146.28 331.415 1146.49 332.212C1146.7 333.009 1146.88 333.807 1147.04 334.604C1147.21 333.807 1147.4 333.009 1147.61 332.212C1147.82 331.415 1148.07 330.6 1148.36 329.768L1153.61 315.52C1153.74 315.173 1153.95 314.887 1154.26 314.662C1154.58 314.437 1154.95 314.324 1155.38 314.324H1160.45ZM1180.25 324.594C1180.25 323.762 1180.13 322.982 1179.88 322.254C1179.66 321.509 1179.31 320.859 1178.84 320.304C1178.38 319.749 1177.78 319.316 1177.05 319.004C1176.34 318.675 1175.51 318.51 1174.55 318.51C1172.7 318.51 1171.24 319.039 1170.16 320.096C1169.1 321.153 1168.43 322.653 1168.13 324.594H1180.25ZM1168 328.468C1168.11 329.837 1168.35 331.025 1168.73 332.03C1169.11 333.018 1169.61 333.841 1170.24 334.5C1170.86 335.141 1171.6 335.627 1172.45 335.956C1173.32 336.268 1174.27 336.424 1175.31 336.424C1176.35 336.424 1177.24 336.303 1177.99 336.06C1178.75 335.817 1179.41 335.549 1179.96 335.254C1180.53 334.959 1181.03 334.691 1181.44 334.448C1181.88 334.205 1182.29 334.084 1182.69 334.084C1183.23 334.084 1183.63 334.283 1183.89 334.682L1185.73 337.022C1185.02 337.854 1184.23 338.556 1183.34 339.128C1182.46 339.683 1181.53 340.133 1180.56 340.48C1179.61 340.809 1178.63 341.043 1177.62 341.182C1176.63 341.321 1175.67 341.39 1174.74 341.39C1172.88 341.39 1171.16 341.087 1169.56 340.48C1167.97 339.856 1166.58 338.946 1165.4 337.75C1164.22 336.537 1163.3 335.046 1162.62 333.278C1161.94 331.493 1161.61 329.43 1161.61 327.09C1161.61 325.27 1161.9 323.563 1162.49 321.968C1163.08 320.356 1163.92 318.961 1165.01 317.782C1166.12 316.586 1167.47 315.641 1169.04 314.948C1170.64 314.255 1172.43 313.908 1174.42 313.908C1176.11 313.908 1177.66 314.177 1179.08 314.714C1180.5 315.251 1181.72 316.04 1182.74 317.08C1183.77 318.103 1184.56 319.368 1185.14 320.876C1185.73 322.367 1186.02 324.074 1186.02 325.998C1186.02 326.969 1185.92 327.627 1185.71 327.974C1185.5 328.303 1185.1 328.468 1184.51 328.468H1168ZM1197.5 314.324V341H1191.05V314.324H1197.5ZM1198.38 306.55C1198.38 307.105 1198.27 307.625 1198.04 308.11C1197.82 308.595 1197.51 309.02 1197.13 309.384C1196.77 309.748 1196.33 310.043 1195.83 310.268C1195.33 310.476 1194.79 310.58 1194.22 310.58C1193.67 310.58 1193.14 310.476 1192.63 310.268C1192.15 310.043 1191.72 309.748 1191.36 309.384C1191 309.02 1190.7 308.595 1190.48 308.11C1190.27 307.625 1190.16 307.105 1190.16 306.55C1190.16 305.978 1190.27 305.441 1190.48 304.938C1190.7 304.435 1191 304.002 1191.36 303.638C1191.72 303.274 1192.15 302.988 1192.63 302.78C1193.14 302.555 1193.67 302.442 1194.22 302.442C1194.79 302.442 1195.33 302.555 1195.83 302.78C1196.33 302.988 1196.77 303.274 1197.13 303.638C1197.51 304.002 1197.82 304.435 1198.04 304.938C1198.27 305.441 1198.38 305.978 1198.38 306.55ZM1220.32 319.524C1220.15 319.801 1219.96 320.001 1219.77 320.122C1219.58 320.226 1219.34 320.278 1219.05 320.278C1218.73 320.278 1218.4 320.191 1218.03 320.018C1217.68 319.845 1217.28 319.654 1216.81 319.446C1216.34 319.221 1215.8 319.021 1215.2 318.848C1214.61 318.675 1213.91 318.588 1213.09 318.588C1211.83 318.588 1210.83 318.857 1210.1 319.394C1209.39 319.931 1209.04 320.633 1209.04 321.5C1209.04 322.072 1209.22 322.557 1209.58 322.956C1209.96 323.337 1210.46 323.675 1211.06 323.97C1211.69 324.265 1212.39 324.533 1213.17 324.776C1213.95 325.001 1214.74 325.253 1215.54 325.53C1216.35 325.807 1217.15 326.128 1217.93 326.492C1218.71 326.839 1219.4 327.289 1220.01 327.844C1220.63 328.381 1221.13 329.031 1221.49 329.794C1221.87 330.557 1222.06 331.475 1222.06 332.55C1222.06 333.833 1221.83 335.02 1221.36 336.112C1220.91 337.187 1220.23 338.123 1219.33 338.92C1218.43 339.7 1217.31 340.315 1215.98 340.766C1214.66 341.199 1213.13 341.416 1211.4 341.416C1210.48 341.416 1209.58 341.329 1208.7 341.156C1207.83 341 1206.99 340.775 1206.18 340.48C1205.38 340.185 1204.63 339.839 1203.94 339.44C1203.26 339.041 1202.67 338.608 1202.15 338.14L1203.63 335.696C1203.82 335.401 1204.04 335.176 1204.3 335.02C1204.56 334.864 1204.89 334.786 1205.29 334.786C1205.69 334.786 1206.06 334.899 1206.41 335.124C1206.77 335.349 1207.19 335.592 1207.66 335.852C1208.13 336.112 1208.67 336.355 1209.3 336.58C1209.94 336.805 1210.74 336.918 1211.71 336.918C1212.48 336.918 1213.13 336.831 1213.66 336.658C1214.22 336.467 1214.67 336.225 1215.02 335.93C1215.38 335.635 1215.64 335.297 1215.8 334.916C1215.97 334.517 1216.06 334.11 1216.06 333.694C1216.06 333.07 1215.86 332.559 1215.48 332.16C1215.12 331.761 1214.63 331.415 1214 331.12C1213.39 330.825 1212.69 330.565 1211.9 330.34C1211.12 330.097 1210.31 329.837 1209.48 329.56C1208.66 329.283 1207.86 328.962 1207.06 328.598C1206.28 328.217 1205.58 327.74 1204.95 327.168C1204.35 326.596 1203.85 325.894 1203.47 325.062C1203.11 324.23 1202.93 323.225 1202.93 322.046C1202.93 320.954 1203.14 319.914 1203.58 318.926C1204.01 317.938 1204.64 317.08 1205.47 316.352C1206.32 315.607 1207.37 315.017 1208.62 314.584C1209.88 314.133 1211.34 313.908 1212.99 313.908C1214.82 313.908 1216.5 314.211 1218.01 314.818C1219.51 315.425 1220.77 316.222 1221.78 317.21L1220.32 319.524Z" fill="#424242"/>
<path d="M491.944 139.952C502.888 139.952 512.824 141.728 521.752 145.28C530.776 148.832 538.456 153.872 544.792 160.4C551.224 166.928 556.168 174.896 559.624 184.304C563.08 193.712 564.808 204.224 564.808 215.84C564.808 227.552 563.08 238.112 559.624 247.52C556.168 256.928 551.224 264.944 544.792 271.568C538.456 278.192 530.776 283.28 521.752 286.832C512.824 290.384 502.888 292.16 491.944 292.16C480.904 292.16 470.872 290.384 461.848 286.832C452.824 283.28 445.096 278.192 438.664 271.568C432.328 264.944 427.384 256.928 423.832 247.52C420.376 238.112 418.648 227.552 418.648 215.84C418.648 204.224 420.376 193.712 423.832 184.304C427.384 174.896 432.328 166.928 438.664 160.4C445.096 153.872 452.824 148.832 461.848 145.28C470.872 141.728 480.904 139.952 491.944 139.952ZM491.944 264.8C504.232 264.8 513.304 260.672 519.16 252.416C525.112 244.16 528.088 232.064 528.088 216.128C528.088 200.192 525.112 188.048 519.16 179.696C513.304 171.344 504.232 167.168 491.944 167.168C479.464 167.168 470.2 171.392 464.152 179.84C458.2 188.192 455.224 200.288 455.224 216.128C455.224 231.968 458.2 244.064 464.152 252.416C470.2 260.672 479.464 264.8 491.944 264.8ZM625.495 167.888C630.103 159.056 635.575 152.144 641.911 147.152C648.247 142.064 655.735 139.52 664.375 139.52C671.191 139.52 676.663 141.008 680.791 143.984L678.487 170.624C678.007 172.352 677.287 173.6 676.327 174.368C675.463 175.04 674.263 175.376 672.727 175.376C671.287 175.376 669.127 175.136 666.247 174.656C663.463 174.176 660.727 173.936 658.039 173.936C654.103 173.936 650.599 174.512 647.527 175.664C644.455 176.816 641.671 178.496 639.175 180.704C636.775 182.816 634.615 185.408 632.695 188.48C630.871 191.552 629.143 195.056 627.511 198.992V290H591.943V142.256H612.823C616.471 142.256 619.015 142.928 620.455 144.272C621.895 145.52 622.855 147.824 623.335 151.184L625.495 167.888ZM736.245 142.256V290H700.533V142.256H736.245ZM741.141 99.2C741.141 102.272 740.517 105.152 739.269 107.84C738.021 110.528 736.341 112.88 734.229 114.896C732.213 116.912 729.813 118.544 727.029 119.792C724.245 120.944 721.269 121.52 718.101 121.52C715.029 121.52 712.101 120.944 709.317 119.792C706.629 118.544 704.277 116.912 702.261 114.896C700.245 112.88 698.613 110.528 697.365 107.84C696.213 105.152 695.637 102.272 695.637 99.2C695.637 96.032 696.213 93.056 697.365 90.272C698.613 87.488 700.245 85.088 702.261 83.072C704.277 81.056 706.629 79.472 709.317 78.32C712.101 77.072 715.029 76.448 718.101 76.448C721.269 76.448 724.245 77.072 727.029 78.32C729.813 79.472 732.213 81.056 734.229 83.072C736.341 85.088 738.021 87.488 739.269 90.272C740.517 93.056 741.141 96.032 741.141 99.2ZM826.506 212.528C830.922 212.528 834.762 211.952 838.026 210.8C841.29 209.552 843.978 207.872 846.09 205.76C848.298 203.648 849.93 201.104 850.986 198.128C852.138 195.152 852.714 191.888 852.714 188.336C852.714 181.04 850.506 175.28 846.09 171.056C841.77 166.736 835.242 164.576 826.506 164.576C817.77 164.576 811.194 166.736 806.778 171.056C802.458 175.28 800.298 181.04 800.298 188.336C800.298 191.792 800.826 195.008 801.882 197.984C803.034 200.96 804.666 203.552 806.778 205.76C808.986 207.872 811.722 209.552 814.986 210.8C818.346 211.952 822.186 212.528 826.506 212.528ZM866.682 296.624C866.682 293.744 865.818 291.392 864.09 289.568C862.362 287.744 860.01 286.352 857.034 285.392C854.058 284.336 850.554 283.568 846.522 283.088C842.586 282.608 838.362 282.272 833.85 282.08C829.434 281.792 824.826 281.552 820.026 281.36C815.322 281.168 810.714 280.784 806.202 280.208C802.266 282.416 799.05 285.008 796.554 287.984C794.154 290.96 792.953 294.416 792.953 298.352C792.953 300.944 793.578 303.344 794.826 305.552C796.17 307.856 798.234 309.824 801.018 311.456C803.898 313.088 807.594 314.336 812.106 315.2C816.618 316.16 822.138 316.64 828.666 316.64C835.29 316.64 841.002 316.112 845.802 315.056C850.602 314.096 854.538 312.704 857.61 310.88C860.778 309.152 863.082 307.04 864.522 304.544C865.962 302.144 866.682 299.504 866.682 296.624ZM902.106 147.296V160.544C902.106 164.768 899.562 167.36 894.474 168.32L881.226 170.768C883.242 175.856 884.25 181.424 884.25 187.472C884.25 194.768 882.762 201.392 879.786 207.344C876.906 213.2 872.874 218.192 867.69 222.32C862.506 226.448 856.362 229.664 849.258 231.968C842.25 234.176 834.666 235.28 826.506 235.28C823.626 235.28 820.842 235.136 818.154 234.848C815.466 234.56 812.826 234.176 810.234 233.696C805.626 236.48 803.322 239.6 803.322 243.056C803.322 246.032 804.666 248.24 807.354 249.68C810.138 251.024 813.786 251.984 818.298 252.56C822.81 253.136 827.946 253.52 833.706 253.712C839.466 253.808 845.37 254.096 851.418 254.576C857.466 255.056 863.37 255.92 869.13 257.168C874.89 258.32 880.026 260.192 884.538 262.784C889.05 265.376 892.65 268.928 895.338 273.44C898.122 277.856 899.514 283.568 899.514 290.576C899.514 297.104 897.882 303.44 894.618 309.584C891.45 315.728 886.794 321.2 880.65 326C874.602 330.8 867.114 334.64 858.186 337.52C849.354 340.496 839.274 341.984 827.946 341.984C816.81 341.984 807.114 340.88 798.858 338.672C790.602 336.56 783.738 333.68 778.266 330.032C772.794 326.48 768.714 322.352 766.026 317.648C763.338 312.944 761.994 308.048 761.994 302.96C761.994 296.048 764.058 290.288 768.186 285.68C772.41 280.976 778.17 277.232 785.466 274.448C781.53 272.432 778.41 269.744 776.105 266.384C773.802 263.024 772.65 258.608 772.65 253.136C772.65 250.928 773.034 248.672 773.802 246.368C774.666 243.968 775.866 241.616 777.402 239.312C779.034 237.008 781.05 234.848 783.45 232.832C785.85 230.72 788.682 228.848 791.945 227.216C784.458 223.184 778.554 217.808 774.234 211.088C770.01 204.368 767.898 196.496 767.898 187.472C767.898 180.176 769.338 173.6 772.218 167.744C775.194 161.792 779.274 156.752 784.458 152.624C789.738 148.4 795.93 145.184 803.034 142.976C810.234 140.768 818.058 139.664 826.506 139.664C832.842 139.664 838.794 140.336 844.362 141.68C849.93 142.928 855.018 144.8 859.626 147.296H902.106ZM961.526 142.256V290H925.814V142.256H961.526ZM966.422 99.2C966.422 102.272 965.798 105.152 964.55 107.84C963.302 110.528 961.622 112.88 959.51 114.896C957.494 116.912 955.094 118.544 952.31 119.792C949.526 120.944 946.55 121.52 943.382 121.52C940.31 121.52 937.382 120.944 934.598 119.792C931.91 118.544 929.558 116.912 927.542 114.896C925.526 112.88 923.894 110.528 922.646 107.84C921.494 105.152 920.918 102.272 920.918 99.2C920.918 96.032 921.494 93.056 922.646 90.272C923.894 87.488 925.526 85.088 927.542 83.072C929.558 81.056 931.91 79.472 934.598 78.32C937.382 77.072 940.31 76.448 943.382 76.448C946.55 76.448 949.526 77.072 952.31 78.32C955.094 79.472 957.494 81.056 959.51 83.072C961.622 85.088 963.302 87.488 964.55 90.272C965.798 93.056 966.422 96.032 966.422 99.2ZM1031.05 160.4C1034.03 157.424 1037.15 154.688 1040.41 152.192C1043.77 149.6 1047.27 147.44 1050.92 145.712C1054.67 143.888 1058.65 142.496 1062.87 141.536C1067.1 140.48 1071.71 139.952 1076.7 139.952C1084.76 139.952 1091.91 141.344 1098.15 144.128C1104.39 146.816 1109.58 150.656 1113.71 155.648C1117.93 160.544 1121.1 166.448 1123.21 173.36C1125.42 180.176 1126.52 187.712 1126.52 195.968V290H1090.95V195.968C1090.95 186.944 1088.89 179.984 1084.76 175.088C1080.63 170.096 1074.35 167.6 1065.9 167.6C1059.75 167.6 1053.99 168.992 1048.62 171.776C1043.24 174.56 1038.15 178.352 1033.35 183.152V290H997.787V142.256H1019.53C1024.14 142.256 1027.16 144.416 1028.6 148.736L1031.05 160.4Z" fill="#424242"/>
<defs>
<linearGradient id="paint0_linear" x1="80.4956" y1="101.114" x2="271.18" y2="413.384" gradientUnits="userSpaceOnUse">
<stop stop-color="#EC7D84"/>
<stop offset="1" stop-color="#FF3169"/>
</linearGradient>
<linearGradient id="paint1_linear" x1="80.4956" y1="101.114" x2="271.18" y2="413.384" gradientUnits="userSpaceOnUse">
<stop stop-color="#EC7D84"/>
<stop offset="1" stop-color="#FF3169"/>
</linearGradient>
<linearGradient id="paint2_linear" x1="80.4956" y1="101.114" x2="271.18" y2="413.384" gradientUnits="userSpaceOnUse">
<stop stop-color="#EC7D84"/>
<stop offset="1" stop-color="#FF3169"/>
</linearGradient>
<linearGradient id="paint3_linear" x1="-42.7761" y1="-31.8809" x2="184.919" y2="254.894" gradientUnits="userSpaceOnUse">
<stop stop-color="#E661F2"/>
<stop offset="1" stop-color="#EC8B6B"/>
</linearGradient>
<linearGradient id="paint4_linear" x1="62.5502" y1="134.776" x2="347.959" y2="407.258" gradientUnits="userSpaceOnUse">
<stop stop-color="#EC7D84"/>
<stop offset="1" stop-color="#FF3169"/>
</linearGradient>
<linearGradient id="paint5_linear" x1="80.4956" y1="101.114" x2="271.18" y2="413.384" gradientUnits="userSpaceOnUse">
<stop stop-color="#EC7D84"/>
<stop offset="1" stop-color="#FF3169"/>
</linearGradient>
<linearGradient id="paint6_linear" x1="80.4956" y1="101.114" x2="271.18" y2="413.384" gradientUnits="userSpaceOnUse">
<stop stop-color="#EC7D84"/>
<stop offset="1" stop-color="#FF3169"/>
</linearGradient>
<linearGradient id="paint7_linear" x1="177.507" y1="66.9692" x2="177.507" y2="292.013" gradientUnits="userSpaceOnUse">
<stop stop-color="#ED6EA0"/>
<stop offset="1" stop-color="#EC8C69"/>
</linearGradient>
</defs>
</svg>
